# Blender v2.90.1 OBJ File: ''
# www.blender.org
mtllib Pyramid.mtl
o Pyramid
v 2.500000 0.000000 0.000000
v 0.000000 0.000000 2.500000
v -2.500000 0.000000 0.000000
v 0.000000 0.000000 -2.500000
v 2.500000 0.250000 0.000000
v 0.000000 0.250000 2.500000
v -2.500000 0.250000 0.000000
v 0.000000 0.250000 -2.500000
v 2.370000 0.250000 0.000000
v 0.000000 0.250000 2.370000
v -2.370000 0.250000 0.000000
v 0.000000 0.250000 -2.370000
v 2.370000 0.500000 0.000000
v 0.000000 0.500000 2.370000
v -2.370000 0.500000 0.000000
v 0.000000 0.500000 -2.370000
v 2.240000 0.500000 0.000000
v 0.000000 0.500000 2.240000
v -2.240000 0.500000 0.000000
v 0.000000 0.500000 -2.240000
v 2.240000 0.750000 0.000000
v 0.000000 0.750000 2.240000
v -2.240000 0.750000 0.000000
v 0.000000 0.750000 -2.240000
v 2.110000 0.750000 0.000000
v 0.000000 0.750000 2.110000
v -2.110000 0.750000 0.000000
v 0.000000 0.750000 -2.110000
v 2.110000 1.000000 0.000000
v 0.000000 1.000000 2.110000
v -2.110000 1.000000 0.000000
v 0.000000 1.000000 -2.110000
v 1.980000 1.000000 0.000000
v 0.000000 1.000000 1.980000
v -1.980000 1.000000 0.000000
v 0.000000 1.000000 -1.980000
v 1.980000 1.250000 0.000000
v 0.000000 1.250000 1.980000
v -1.980000 1.250000 0.000000
v 0.000000 1.250000 -1.980000
v 1.850000 1.250000 0.000000
v 0.000000 1.250000 1.850000
v -1.850000 1.250000 0.000000
v 0.000000 1.250000 -1.850000
v 1.850000 1.500000 0.000000
v 0.000000 1.500000 1.850000
v -1.850000 1.500000 0.000000
v 0.000000 1.500000 -1.850000
v 1.720000 1.500000 0.000000
v 0.000000 1.500000 1.720000
v -1.720000 1.500000 0.000000
v 0.000000 1.500000 -1.720000
v 1.720000 1.750000 0.000000
v 0.000000 1.750000 1.720000
v -1.720000 1.750000 0.000000
v 0.000000 1.750000 -1.720000
v 1.590000 1.750000 0.000000
v 0.000000 1.750000 1.590000
v -1.590000 1.750000 0.000000
v 0.000000 1.750000 -1.590000
v 1.590000 2.000000 0.000000
v 0.000000 2.000000 1.590000
v -1.590000 2.000000 0.000000
v 0.000000 2.000000 -1.590000
v 1.460000 2.000000 0.000000
v 0.000000 2.000000 1.460000
v -1.460000 2.000000 0.000000
v 0.000000 2.000000 -1.460000
v 1.460000 2.250000 0.000000
v 0.000000 2.250000 1.460000
v -1.460000 2.250000 0.000000
v 0.000000 2.250000 -1.460000
v 1.330000 2.250000 0.000000
v 0.000000 2.250000 1.330000
v -1.330000 2.250000 0.000000
v 0.000000 2.250000 -1.330000
v 1.330000 2.500000 0.000000
v 0.000000 2.500000 1.330000
v -1.330000 2.500000 0.000000
v 0.000000 2.500000 -1.330000
vt 0.300806 0.300842
vt 0.000000 0.000000
vt 0.300806 0.000000
vt 0.160029 0.793020
vt 0.000000 0.953069
vt 0.000000 0.793020
vt 0.808568 0.601685
vt 0.829838 0.300842
vt 0.829838 0.601685
vt 0.829838 0.601685
vt 0.851108 0.300842
vt 0.851108 0.601685
vt 0.507761 0.871239
vt 0.529032 0.570397
vt 0.529032 0.871239
vt 0.529032 0.871239
vt 0.550302 0.570397
vt 0.550302 0.871239
vt 0.206955 0.871239
vt 0.228225 0.586041
vt 0.228225 0.871239
vt 0.228225 0.871239
vt 0.249495 0.586041
vt 0.249495 0.871239
vt 0.872379 0.300842
vt 0.851108 0.586041
vt 0.851108 0.300842
vt 0.249495 0.871239
vt 0.270766 0.586041
vt 0.270766 0.871239
vt 0.851108 0.601685
vt 0.829838 0.871239
vt 0.829838 0.601685
vt 0.893649 0.300842
vt 0.872379 0.570397
vt 0.872379 0.300842
vt 0.829838 0.601685
vt 0.808568 0.871239
vt 0.808568 0.601685
vt 0.872379 0.586041
vt 0.851108 0.855596
vt 0.851108 0.586041
vt 0.872379 0.824308
vt 0.893649 0.570397
vt 0.893649 0.824308
vt 0.936189 0.554753
vt 0.914919 0.808664
vt 0.914919 0.554753
vt 0.893649 0.554753
vt 0.914919 0.300842
vt 0.914919 0.554753
vt 0.914919 0.554753
vt 0.936189 0.300842
vt 0.936189 0.554753
vt 0.936189 0.777377
vt 0.957459 0.539110
vt 0.957460 0.777377
vt 0.936189 0.539110
vt 0.957459 0.300842
vt 0.957460 0.539110
vt 0.978730 0.300842
vt 0.978730 0.539110
vt 0.957460 0.777377
vt 0.978730 0.539110
vt 0.978730 0.777377
vt 0.936189 1.000000
vt 0.957459 0.777377
vt 0.957460 1.000000
vt 0.957460 1.000000
vt 0.978730 0.777377
vt 0.978730 1.000000
vt 0.968597 0.222623
vt 0.989867 0.000000
vt 0.989867 0.222623
vt 0.978730 0.523466
vt 1.000000 0.300842
vt 1.000000 0.523466
vt 0.160029 1.000000
vt 0.181299 0.793020
vt 0.181299 1.000000
vt 0.306435 0.793020
vt 0.285165 1.000000
vt 0.285165 0.793020
vt 0.327705 0.793020
vt 0.306435 1.000000
vt 0.306435 0.793020
vt 0.181299 1.000000
vt 0.202570 0.793020
vt 0.202570 1.000000
vt 0.370246 0.984356
vt 0.391516 0.793020
vt 0.391516 0.984356
vt 0.370246 0.984356
vt 0.348975 0.793020
vt 0.370246 0.793020
vt 0.391516 0.984356
vt 0.412786 0.793020
vt 0.412786 0.984356
vt 0.327705 0.984356
vt 0.348975 0.793020
vt 0.348975 0.984356
vt 0.412786 0.968712
vt 0.434056 0.793020
vt 0.434056 0.968712
vt 0.476597 0.793020
vt 0.455327 0.968712
vt 0.455327 0.793020
vt 0.434056 0.968712
vt 0.455327 0.793020
vt 0.497867 0.793020
vt 0.476597 0.968712
vt 0.476597 0.793020
vt 0.618498 0.793020
vt 0.597228 0.953069
vt 0.597228 0.793020
vt 0.554687 0.953069
vt 0.575957 0.793020
vt 0.575957 0.953069
vt 0.597228 0.793020
vt 0.575957 0.953069
vt 0.639768 0.793020
vt 0.618498 0.953069
vt 0.618498 0.793020
vt 0.300806 0.000000
vt 0.308627 0.293020
vt 0.300806 0.300842
vt 0.601613 0.300842
vt 0.593792 0.007822
vt 0.601613 0.000000
vt 0.277344 0.308664
vt 0.000000 0.300842
vt 0.285165 0.300842
vt 0.007821 0.578219
vt 0.000000 0.586041
vt 0.277344 0.578219
vt 0.285165 0.586041
vt 0.554687 0.300842
vt 0.292986 0.308664
vt 0.285165 0.300842
vt 0.292985 0.562575
vt 0.285165 0.570397
vt 0.554687 0.570397
vt 0.546866 0.562575
vt 0.562508 0.308664
vt 0.554687 0.554753
vt 0.554687 0.300842
vt 0.562508 0.546931
vt 0.808568 0.554753
vt 0.800747 0.546931
vt 0.808568 0.300842
vt 0.800747 0.308664
vt 0.554687 0.554753
vt 0.562508 0.785199
vt 0.554687 0.793020
vt 0.785105 0.785199
vt 0.792926 0.793020
vt 0.792926 0.554753
vt 0.785105 0.562575
vt 0.285165 0.793020
vt 0.499940 0.785199
vt 0.507761 0.793020
vt 0.507761 0.570397
vt 0.499940 0.578219
vt 0.285165 0.570397
vt 0.292986 0.785199
vt 0.199134 0.593863
vt 0.000000 0.586041
vt 0.206955 0.586041
vt 0.007821 0.593863
vt 0.000000 0.793020
vt 0.199134 0.785199
vt 0.206955 0.793020
vt 0.609434 0.183514
vt 0.792926 0.191336
vt 0.601613 0.191336
vt 0.785105 0.183514
vt 0.792926 0.000000
vt 0.609434 0.007822
vt 0.601613 0.000000
vt 0.960776 0.007822
vt 0.792926 0.000000
vt 0.968597 0.000000
vt 0.800747 0.007822
vt 0.792926 0.175692
vt 0.800747 0.167870
vt 0.968597 0.175692
vt 0.960776 0.167870
vt 0.000000 0.300842
vt 0.160029 0.953069
vt 0.808568 0.300842
vt 0.829838 0.300842
vt 0.507761 0.570397
vt 0.529032 0.570397
vt 0.206955 0.586041
vt 0.228225 0.586041
vt 0.872379 0.586041
vt 0.249495 0.586041
vt 0.851108 0.871239
vt 0.893649 0.570397
vt 0.829838 0.871239
vt 0.872379 0.855596
vt 0.872379 0.570397
vt 0.936189 0.808664
vt 0.893649 0.300842
vt 0.914919 0.300842
vt 0.936189 0.300842
vt 0.957460 0.300842
vt 0.957460 0.539110
vt 0.936189 0.777377
vt 0.957460 0.777377
vt 0.968597 0.000000
vt 0.978730 0.300842
vt 0.160029 0.793020
vt 0.306435 1.000000
vt 0.327705 1.000000
vt 0.181299 0.793020
vt 0.370246 0.793020
vt 0.348975 0.984356
vt 0.391516 0.793020
vt 0.327705 0.793020
vt 0.412786 0.793020
vt 0.476597 0.968712
vt 0.434056 0.793020
vt 0.497867 0.968712
vt 0.618498 0.953069
vt 0.554687 0.793020
vt 0.597228 0.953069
vt 0.639768 0.953069
vt 0.308627 0.007822
vt 0.593792 0.293020
vt 0.007821 0.308664
vt 0.546866 0.308664
vt 0.562508 0.562575
vt 0.292986 0.578219
vt 0.007821 0.785199
vt 0.785105 0.007822
vn 0.0000 -1.0000 0.0000
vn 0.0000 1.0000 0.0000
vn 0.7071 0.0000 0.7071
vn -0.7071 0.0000 0.7071
vn -0.7071 0.0000 -0.7071
vn 0.7071 0.0000 -0.7071
usemtl Brick
s off
f 2/1/1 4/2/1 1/3/1
f 79/4/2 77/5/2 80/6/2
f 5/7/3 2/8/3 1/9/3
f 6/10/4 3/11/4 2/12/4
f 7/13/5 4/14/5 3/15/5
f 8/16/6 1/17/6 4/18/6
f 13/19/3 10/20/3 9/21/3
f 14/22/4 11/23/4 10/24/4
f 15/25/5 12/26/5 11/27/5
f 16/28/6 9/29/6 12/30/6
f 21/31/3 18/32/3 17/33/3
f 22/34/4 19/35/4 18/36/4
f 23/37/5 20/38/5 19/39/5
f 24/40/6 17/41/6 20/42/6
f 29/43/3 26/44/3 25/45/3
f 30/46/4 27/47/4 26/48/4
f 31/49/5 28/50/5 27/51/5
f 32/52/6 25/53/6 28/54/6
f 37/55/3 34/56/3 33/57/3
f 38/58/4 35/59/4 34/56/4
f 39/60/5 36/61/5 35/62/5
f 40/63/6 33/64/6 36/65/6
f 45/66/3 42/67/3 41/68/3
f 46/69/4 43/70/4 42/71/4
f 47/72/5 44/73/5 43/74/5
f 48/75/6 41/76/6 44/77/6
f 53/78/3 50/79/3 49/80/3
f 54/81/4 51/82/4 50/83/4
f 55/84/5 52/85/5 51/86/5
f 56/87/6 49/88/6 52/89/6
f 61/90/3 58/91/3 57/92/3
f 58/93/4 63/94/4 59/95/4
f 63/96/5 60/97/5 59/98/5
f 64/99/6 57/100/6 60/101/6
f 69/102/3 66/103/3 65/104/3
f 70/105/4 67/106/4 66/107/4
f 71/108/5 68/109/5 67/106/5
f 72/110/6 65/111/6 68/112/6
f 77/113/3 74/114/3 73/115/3
f 78/116/4 75/117/4 74/118/4
f 79/119/5 76/120/5 75/117/5
f 80/121/6 73/122/6 76/123/6
f 5/124/2 10/125/2 6/126/2
f 10/125/2 7/127/2 6/126/2
f 7/127/2 12/128/2 8/129/2
f 12/128/2 5/124/2 8/129/2
f 17/130/2 14/131/2 13/132/2
f 14/131/2 19/133/2 15/134/2
f 15/134/2 20/135/2 16/136/2
f 20/135/2 13/132/2 16/136/2
f 21/137/2 26/138/2 22/139/2
f 22/139/2 27/140/2 23/141/2
f 27/140/2 24/142/2 23/141/2
f 28/143/2 21/137/2 24/142/2
f 33/144/2 30/145/2 29/146/2
f 34/147/2 31/148/2 30/145/2
f 35/149/2 32/150/2 31/148/2
f 36/151/2 29/146/2 32/150/2
f 37/152/2 42/153/2 38/154/2
f 38/154/2 43/155/2 39/156/2
f 43/155/2 40/157/2 39/156/2
f 44/158/2 37/152/2 40/157/2
f 45/159/2 50/160/2 46/161/2
f 50/160/2 47/162/2 46/161/2
f 51/163/2 48/164/2 47/162/2
f 48/164/2 49/165/2 45/159/2
f 57/166/2 54/167/2 53/168/2
f 58/169/2 55/170/2 54/167/2
f 55/170/2 60/171/2 56/172/2
f 56/172/2 57/166/2 53/168/2
f 65/173/2 62/174/2 61/175/2
f 66/176/2 63/177/2 62/174/2
f 63/177/2 68/178/2 64/179/2
f 64/179/2 65/173/2 61/175/2
f 73/180/2 70/181/2 69/182/2
f 74/183/2 71/184/2 70/181/2
f 75/185/2 72/186/2 71/184/2
f 76/187/2 69/182/2 72/186/2
f 2/1/1 3/188/1 4/2/1
f 79/4/2 78/189/2 77/5/2
f 5/7/3 6/190/3 2/8/3
f 6/10/4 7/191/4 3/11/4
f 7/13/5 8/192/5 4/14/5
f 8/16/6 5/193/6 1/17/6
f 13/19/3 14/194/3 10/20/3
f 14/22/4 15/195/4 11/23/4
f 15/25/5 16/196/5 12/26/5
f 16/28/6 13/197/6 9/29/6
f 21/31/3 22/198/3 18/32/3
f 22/34/4 23/199/4 19/35/4
f 23/37/5 24/200/5 20/38/5
f 24/40/6 21/201/6 17/41/6
f 29/43/3 30/202/3 26/44/3
f 30/46/4 31/203/4 27/47/4
f 31/49/5 32/204/5 28/50/5
f 32/52/6 29/205/6 25/53/6
f 37/55/3 38/58/3 34/56/3
f 38/58/4 39/206/4 35/59/4
f 39/60/5 40/207/5 36/61/5
f 40/63/6 37/208/6 33/64/6
f 45/66/3 46/209/3 42/67/3
f 46/69/4 47/210/4 43/70/4
f 47/72/5 48/211/5 44/73/5
f 48/75/6 45/212/6 41/76/6
f 53/78/3 54/213/3 50/79/3
f 54/81/4 55/214/4 51/82/4
f 55/84/5 56/215/5 52/85/5
f 56/87/6 53/216/6 49/88/6
f 61/90/3 62/217/3 58/91/3
f 58/93/4 62/218/4 63/94/4
f 63/96/5 64/219/5 60/97/5
f 64/99/6 61/220/6 57/100/6
f 69/102/3 70/221/3 66/103/3
f 70/105/4 71/222/4 67/106/4
f 71/108/5 72/223/5 68/109/5
f 72/110/6 69/224/6 65/111/6
f 77/113/3 78/225/3 74/114/3
f 78/116/4 79/226/4 75/117/4
f 79/119/5 80/227/5 76/120/5
f 80/121/6 77/228/6 73/122/6
f 5/124/2 9/229/2 10/125/2
f 10/125/2 11/230/2 7/127/2
f 7/127/2 11/230/2 12/128/2
f 12/128/2 9/229/2 5/124/2
f 17/130/2 18/231/2 14/131/2
f 14/131/2 18/231/2 19/133/2
f 15/134/2 19/133/2 20/135/2
f 20/135/2 17/130/2 13/132/2
f 21/137/2 25/232/2 26/138/2
f 22/139/2 26/138/2 27/140/2
f 27/140/2 28/143/2 24/142/2
f 28/143/2 25/232/2 21/137/2
f 33/144/2 34/147/2 30/145/2
f 34/147/2 35/149/2 31/148/2
f 35/149/2 36/151/2 32/150/2
f 36/151/2 33/144/2 29/146/2
f 37/152/2 41/233/2 42/153/2
f 38/154/2 42/153/2 43/155/2
f 43/155/2 44/158/2 40/157/2
f 44/158/2 41/233/2 37/152/2
f 45/159/2 49/165/2 50/160/2
f 50/160/2 51/163/2 47/162/2
f 51/163/2 52/234/2 48/164/2
f 48/164/2 52/234/2 49/165/2
f 57/166/2 58/169/2 54/167/2
f 58/169/2 59/235/2 55/170/2
f 55/170/2 59/235/2 60/171/2
f 56/172/2 60/171/2 57/166/2
f 65/173/2 66/176/2 62/174/2
f 66/176/2 67/236/2 63/177/2
f 63/177/2 67/236/2 68/178/2
f 64/179/2 68/178/2 65/173/2
f 73/180/2 74/183/2 70/181/2
f 74/183/2 75/185/2 71/184/2
f 75/185/2 76/187/2 72/186/2
f 76/187/2 73/180/2 69/182/2
